<svg width="40" height="27" viewBox="0 0 40 27" fill="none" xmlns="http://www.w3.org/2000/svg">
<path d="M39.8933 6.65473L36.6767 0.535712C36.4991 0.20238 36.1439 0 35.7624 0C35.7229 0 20.0015 1.90475 20.0015 1.90475C20.0015 1.90475 4.28002 0 4.24056 0C3.85903 0 3.50382 0.208332 3.32621 0.535712L0.109569 6.65473C-0.179863 7.20235 0.129303 7.85711 0.741057 8.02377L3.99717 8.91067V21.488C3.99717 22.363 4.62208 23.1249 5.51011 23.3332L19.0213 26.5535C19.8765 26.7558 20.5803 26.6427 20.9618 26.5535L34.4862 23.3332C35.3743 23.1189 35.9992 22.357 35.9992 21.488V8.91067L39.2553 8.02377C39.8736 7.85711 40.1762 7.20235 39.8933 6.65473ZM4.80626 1.98213L16.7059 3.42856L12.9498 9.36901L2.4316 6.50592L4.80626 1.98213ZM6.00346 9.45829C13.7063 11.5535 13.1932 11.4285 13.3971 11.4285C13.7524 11.4285 14.0878 11.2559 14.272 10.9583L19.0016 3.48808V24.5832L6.00346 21.488V9.45829ZM33.9995 21.488L21.0013 24.5832V3.48213L25.7309 10.9523C25.9217 11.2499 26.2571 11.4226 26.6058 11.4226C26.8097 11.4226 26.2769 11.5476 33.9995 9.45234V21.488ZM27.0597 9.36305L23.3036 3.4226L35.1966 1.98213L37.5713 6.50592L27.0597 9.36305Z" fill="black"/>
</svg>
