<svg width="36" height="25" viewBox="0 0 36 25" fill="none" xmlns="http://www.w3.org/2000/svg">
<path d="M35.55 18.3333H34.2V12.7031C34.2 11.8281 33.8175 10.9688 33.1425 10.349L28.4231 5.97917C27.7594 5.35417 26.8312 5 25.8806 5H23.4V2.42708C23.4 1.08854 22.1512 0 20.6213 0H2.77875C1.24875 0 0 1.08854 0 2.42708V17.5729C0 18.9115 1.24875 20 2.77875 20H3.69C3.62812 20.2708 3.6 20.5469 3.6 20.8333C3.6 23.1354 5.61375 25 8.1 25C10.5862 25 12.6 23.1354 12.6 20.8333C12.6 20.5469 12.5662 20.2708 12.51 20H23.49C23.4281 20.2708 23.4 20.5469 23.4 20.8333C23.4 23.1354 25.4137 25 27.9 25C30.3862 25 32.4 23.1354 32.4 20.8333C32.4 20.5469 32.3662 20.2708 32.31 20H35.55C35.7975 20 36 19.8125 36 19.5833V18.75C36 18.5208 35.7975 18.3333 35.55 18.3333ZM25.8806 6.66667C26.3531 6.66667 26.82 6.84375 27.1519 7.15625L31.8712 11.526C31.9162 11.5677 31.9331 11.625 31.9725 11.6719H23.4V6.67188H25.8806V6.66667ZM8.1 23.3333C6.60938 23.3333 5.4 22.2135 5.4 20.8333C5.4 19.4531 6.60938 18.3333 8.1 18.3333C9.59062 18.3333 10.8 19.4531 10.8 20.8333C10.8 22.2135 9.59062 23.3333 8.1 23.3333ZM11.6775 18.3333C10.8562 17.3281 9.5625 16.6667 8.1 16.6667C6.6375 16.6667 5.34375 17.3281 4.5225 18.3333H2.77875C2.23875 18.3333 1.8 17.9948 1.8 17.5729V2.42708C1.8 2.00521 2.23875 1.66667 2.77875 1.66667H20.6213C21.1612 1.66667 21.6 2.00521 21.6 2.42708V18.3333H11.6775ZM27.9 23.3333C26.4094 23.3333 25.2 22.2135 25.2 20.8333C25.2 19.4531 26.4094 18.3333 27.9 18.3333C29.3906 18.3333 30.6 19.4531 30.6 20.8333C30.6 22.2135 29.3906 23.3333 27.9 23.3333ZM27.9 16.6667C26.4319 16.6667 25.1437 17.3281 24.3225 18.3333H23.4V13.3333H32.4V18.3333H31.4775C30.6562 17.3281 29.3681 16.6667 27.9 16.6667Z" fill="black"/>
</svg>
