<svg width="35" height="22" viewBox="0 0 35 22" fill="none" xmlns="http://www.w3.org/2000/svg">
<path d="M33.25 0H1.75C0.782031 0 0 0.819271 0 1.83333V20.1667C0 21.1807 0.782031 22 1.75 22H33.25C34.218 22 35 21.1807 35 20.1667V1.83333C35 0.819271 34.218 0 33.25 0ZM1.75 1.83333H5.25C5.25 3.85573 3.68047 5.5 1.75 5.5V1.83333ZM1.75 20.1667V16.5C3.68047 16.5 5.25 18.1443 5.25 20.1667H1.75ZM33.25 20.1667H29.75C29.75 18.1443 31.3195 16.5 33.25 16.5V20.1667ZM33.25 14.6667C30.357 14.6667 28 17.1359 28 20.1667H7C7 17.1359 4.64297 14.6667 1.75 14.6667V7.33333C4.64297 7.33333 7 4.86406 7 1.83333H28C28 4.86406 30.357 7.33333 33.25 7.33333V14.6667ZM33.25 5.5C31.3195 5.5 29.75 3.85573 29.75 1.83333H33.25V5.5ZM17.5 3.66667C14.1148 3.66667 11.375 6.94948 11.375 11C11.375 15.0505 14.1148 18.3333 17.5 18.3333C20.8797 18.3333 23.625 15.0505 23.625 11C23.625 6.94948 20.8852 3.66667 17.5 3.66667ZM17.5 16.5C15.0883 16.5 13.125 14.0307 13.125 11C13.125 7.96927 15.0883 5.5 17.5 5.5C19.9117 5.5 21.875 7.96927 21.875 11C21.875 14.0307 19.9117 16.5 17.5 16.5ZM19.25 12.8391H18.375V7.7974C18.375 7.54531 18.1781 7.33906 17.9375 7.33906H17.1883C16.9312 7.33906 16.6742 7.41927 16.4609 7.56823L15.6242 8.1526C15.4219 8.29583 15.3727 8.57656 15.5039 8.78854L15.9906 9.55052C16.1273 9.7625 16.3953 9.81406 16.5977 9.67656L16.625 9.65938V12.8333H15.75C15.5094 12.8333 15.3125 13.0396 15.3125 13.2917V14.2083C15.3125 14.4604 15.5094 14.6667 15.75 14.6667H19.25C19.4906 14.6667 19.6875 14.4604 19.6875 14.2083V13.2917C19.6875 13.0396 19.4906 12.8333 19.25 12.8391Z" fill="black"/>
</svg>
