<svg width="25" height="25" viewBox="0 0 25 25" fill="none" xmlns="http://www.w3.org/2000/svg">
<path d="M12.7083 0.397579C9.88094 0.397579 7.27678 1.34993 5.19345 2.95206L2.70833 0.467021C1.71627 -0.529972 0 0.174371 0 1.58802V7.93703C0 8.81498 0.709325 9.52428 1.5873 9.52428H7.9365C9.35019 9.52428 10.0546 7.81303 9.05753 6.81603L6.3988 4.15242C8.19939 2.8231 10.3919 2.08404 12.6984 2.08404C18.5714 2.08404 23.3135 6.84579 23.3135 12.6988C23.3135 18.5716 18.5516 23.3135 12.6984 23.3135C10.0347 23.3135 7.52975 22.3314 5.60019 20.5904C5.36706 20.3771 5.00495 20.392 4.78174 20.6152L4.42956 20.9674C4.1865 21.2104 4.20138 21.6023 4.45436 21.8305C6.6369 23.7996 9.52876 25 12.6984 25C19.4841 25 24.9851 19.5041 25 12.7236C25.0149 5.94304 19.4841 0.402539 12.7083 0.397579ZM7.9365 7.93703H1.5873V1.58802L7.9365 7.93703Z" fill="black"/>
</svg>
