<svg width="15" height="15" viewBox="0 0 15 15" fill="none" xmlns="http://www.w3.org/2000/svg">
<path d="M14.8967 14.1087L11.1176 10.3296C11.0502 10.2622 10.9624 10.227 10.8686 10.227H10.5669C11.5717 9.14018 12.1869 7.69005 12.1869 6.09345C12.1869 2.72741 9.4595 0 6.09345 0C2.72741 0 0 2.72741 0 6.09345C0 9.4595 2.72741 12.1869 6.09345 12.1869C7.69005 12.1869 9.14018 11.5717 10.227 10.5698V10.8686C10.227 10.9624 10.2651 11.0502 10.3296 11.1176L14.1087 14.8967C14.2464 15.0344 14.469 15.0344 14.6067 14.8967L14.8967 14.6067C15.0344 14.469 15.0344 14.2464 14.8967 14.1087ZM6.09345 11.2494C3.24301 11.2494 0.937454 8.9439 0.937454 6.09345C0.937454 3.243 3.24301 0.937454 6.09345 0.937454C8.9439 0.937454 11.2494 3.243 11.2494 6.09345C11.2494 8.9439 8.9439 11.2494 6.09345 11.2494Z" fill="#4D5259"/>
</svg>
