<svg width="35" height="30" viewBox="0 0 35 30" fill="none" xmlns="http://www.w3.org/2000/svg">
<path d="M33.5411 3.75H8.76701L8.23679 1.13625C8.10286 0.47625 7.503 0 6.80555 0L0.729167 0C0.326484 0 0 0.314824 0 0.703125V2.10938C0 2.49768 0.326484 2.8125 0.729167 2.8125H5.60486L9.83366 23.6544C9.16295 24.3282 8.75 25.2423 8.75 26.25C8.75 28.3211 10.4911 30 12.6389 30C14.7866 30 16.5278 28.3211 16.5278 26.25C16.5285 25.5916 16.3486 24.9447 16.0062 24.375H24.8271C24.4848 24.9447 24.3049 25.5916 24.3056 26.25C24.3056 28.3211 26.0467 30 28.1945 30C30.3423 30 32.0834 28.3211 32.0834 26.25C32.0834 25.1873 31.6243 24.2288 30.8878 23.5464L30.9507 23.2676C31.1484 22.3911 30.4559 21.5625 29.5257 21.5625H12.3812L11.8107 18.75H30.7936C31.4796 18.75 32.0729 18.2889 32.2186 17.6425L34.9661 5.45496C35.1637 4.57846 34.4713 3.75 33.5411 3.75ZM12.6389 27.6562C11.8347 27.6562 11.1806 27.0254 11.1806 26.25C11.1806 25.4746 11.8347 24.8438 12.6389 24.8438C13.443 24.8438 14.0972 25.4746 14.0972 26.25C14.0972 27.0254 13.443 27.6562 12.6389 27.6562ZM28.1944 27.6562C27.3903 27.6562 26.7361 27.0254 26.7361 26.25C26.7361 25.4746 27.3903 24.8438 28.1944 24.8438C28.9986 24.8438 29.6528 25.4746 29.6528 26.25C29.6528 27.0254 28.9986 27.6562 28.1944 27.6562ZM29.6186 15.9375H11.2401L9.33758 6.5625H31.732L29.6186 15.9375Z" fill="white"/>
</svg>
