<svg width="30" height="30" viewBox="0 0 30 30" fill="none" xmlns="http://www.w3.org/2000/svg">
<path d="M11.25 13.125C11.25 12.0896 10.4104 11.25 9.375 11.25H7.5C5.42871 11.25 3.75 12.9287 3.75 15V18.7289C3.75 20.8002 5.42871 22.4789 7.5 22.4789H9.375C10.4104 22.4789 11.25 21.6393 11.25 20.6039V13.125ZM9.375 20.6039H7.5C6.46641 20.6039 5.625 19.7625 5.625 18.7289V15C5.625 13.9664 6.46641 13.125 7.5 13.125H9.375V20.6039ZM22.5 22.4789C24.5713 22.4789 26.25 20.8002 26.25 18.7289V15C26.25 12.9287 24.5713 11.25 22.5 11.25H20.625C19.5896 11.25 18.75 12.0896 18.75 13.125V20.6039C18.75 21.6393 19.5896 22.4789 20.625 22.4789H22.5ZM20.625 13.125H22.5C23.5336 13.125 24.375 13.9664 24.375 15V18.7289C24.375 19.7625 23.5336 20.6039 22.5 20.6039H20.625V13.125ZM15 0C6.67793 0 0.229687 6.90352 0.00585938 15L0 16.4062C0 16.6652 0.209766 16.875 0.46875 16.875H1.40625C1.66523 16.875 1.875 16.6652 1.875 16.4062L1.88027 15C2.07598 7.92129 7.7127 1.875 15 1.875C22.2363 1.875 28.125 7.7625 28.125 15V25.3125C28.125 26.8635 26.8635 28.125 25.3125 28.125H20.4527C20.5576 27.8303 20.625 27.518 20.625 27.1875C20.625 25.6342 19.3658 24.375 17.8125 24.375H14.0625C12.5092 24.375 11.25 25.6342 11.25 27.1875C11.25 28.7408 12.5092 30 14.0625 30H25.3125C27.8977 30 30 27.8971 30 25.3125V15C30 6.72949 23.2711 0 15 0ZM17.8125 28.125H14.0625C13.5457 28.125 13.125 27.7043 13.125 27.1875C13.125 26.6707 13.5457 26.25 14.0625 26.25H17.8125C18.3293 26.25 18.75 26.6707 18.75 27.1875C18.75 27.7043 18.3293 28.125 17.8125 28.125Z" fill="black"/>
</svg>
