<svg width="196" height="70" viewBox="0 0 196 70" fill="none" xmlns="http://www.w3.org/2000/svg">
<path d="M21.6203 69.825C15.7803 69.593 11.0023 67.995 7.2663 65.027C6.5533 64.46 4.85429 62.76 4.28429 62.043C2.76929 60.138 1.7393 58.284 1.0523 56.227C-1.0617 49.895 0.0262995 41.586 4.1643 32.467C7.7073 24.66 13.1743 16.917 22.7123 6.19302C24.1173 4.61502 28.3013 0 28.3283 0C28.3383 0 28.1103 0.395007 27.8233 0.876007C25.3433 5.03001 23.2213 9.923 22.0653 14.159C20.2083 20.956 20.4323 26.789 22.7213 31.312C24.3003 34.428 27.0073 37.127 30.0513 38.619C35.3803 41.23 43.1823 41.446 52.7103 39.251C53.3663 39.099 85.8723 30.47 124.946 20.075C164.02 9.67901 195.995 1.18001 196 1.18701C196.011 1.19601 105.22 40.046 58.0893 60.201C50.6253 63.392 48.6293 64.198 45.1203 65.43C36.1503 68.58 28.1153 70.083 21.6203 69.825Z" fill="#FD8625"/>
</svg>
